<svg width="428" height="884" viewBox="0 0 428 884" fill="none" xmlns="http://www.w3.org/2000/svg">
<path d="M448.23 1.68329C448.608 1.28004 448.587 0.647226 448.183 0.269854C447.78 -0.107517 447.147 -0.0865398 446.77 0.316709L448.23 1.68329ZM313 228L313.943 228.332L313 228ZM313 394.5L312.207 393.891L313 394.5ZM-36.9837 882.32C-37.0829 882.864 -36.7229 883.385 -36.1796 883.484C-35.6363 883.583 -35.1154 883.223 -35.0163 882.68L-36.9837 882.32ZM-35.0163 882.68C-34.9074 882.083 -34.7867 881.472 -34.6544 880.846L-36.6112 880.432C-36.7471 881.075 -36.8713 881.705 -36.9837 882.32L-35.0163 882.68ZM-33.7222 876.922C-33.407 875.716 -33.0564 874.468 -32.6711 873.178L-34.5874 872.606C-34.9787 873.915 -35.3357 875.186 -35.6572 876.416L-33.7222 876.922ZM-31.4384 869.269C-31.0442 868.078 -30.6245 866.857 -30.1797 865.608L-32.0639 864.937C-32.5134 866.199 -32.938 867.434 -33.3372 868.641L-31.4384 869.269ZM-28.7709 861.777C-28.3191 860.584 -27.8469 859.369 -27.3547 858.132L-29.213 857.393C-29.7091 858.639 -30.1853 859.865 -30.6412 861.068L-28.7709 861.777ZM-25.8358 854.399C-25.3347 853.192 -24.8163 851.967 -24.2808 850.725L-26.1176 849.933C-26.6563 851.184 -27.1782 852.417 -27.6828 853.631L-25.8358 854.399ZM-22.6873 847.086C-22.1418 845.86 -21.5809 844.618 -21.005 843.361L-22.8233 842.528C-23.4021 843.792 -23.966 845.04 -24.5146 846.273L-22.6873 847.086ZM-19.357 839.81C-18.7949 838.613 -18.22 837.404 -17.6326 836.183L-19.4349 835.316C-20.0249 836.542 -20.6024 837.757 -21.1672 838.959L-19.357 839.81ZM-15.8666 832.551C-15.2922 831.383 -14.7069 830.204 -14.1111 829.015L-15.8991 828.119C-16.4972 829.312 -17.0847 830.496 -17.6616 831.669L-15.8666 832.551ZM-12.2924 825.42C-11.6884 824.237 -11.0745 823.045 -10.4509 821.845L-12.2257 820.923C-12.8514 822.127 -13.4675 823.323 -14.0737 824.511L-12.2924 825.42ZM-8.61363 818.336C-7.99228 817.159 -7.36206 815.975 -6.72316 814.783L-8.4859 813.838C-9.12678 815.033 -9.75899 816.222 -10.3823 817.403L-8.61363 818.336ZM-4.80915 811.238C-4.18259 810.086 -3.54829 808.928 -2.9064 807.763L-4.65784 806.798C-5.30155 807.965 -5.9377 809.127 -6.56611 810.282L-4.80915 811.238ZM-0.958178 804.253C-0.304159 803.082 0.357208 801.906 1.02576 800.725L-0.71489 799.74C-1.38521 800.924 -2.04836 802.104 -2.70418 803.278L-0.958178 804.253ZM2.98381 797.285C3.64311 796.134 4.30896 794.978 4.98121 793.818L3.25075 792.815C2.57681 793.978 1.90927 795.137 1.24828 796.291L2.98381 797.285ZM7.01706 790.325C7.68504 789.185 8.35896 788.042 9.03871 786.895L7.31814 785.875C6.63678 787.025 5.96123 788.171 5.29162 789.314L7.01706 790.325ZM11.0803 783.468C11.7664 782.323 12.4582 781.174 13.1554 780.022L11.4444 778.987C10.7456 780.141 10.0523 781.293 9.36452 782.441L11.0803 783.468ZM15.2448 776.588C15.9342 775.461 16.6286 774.331 17.328 773.199L15.6264 772.148C14.9255 773.283 14.2295 774.415 13.5386 775.545L15.2448 776.588ZM19.4407 769.796C20.1498 768.659 20.8637 767.52 21.5822 766.379L19.89 765.313C19.1699 766.456 18.4544 767.598 17.7438 768.737L19.4407 769.796ZM23.7155 763.009C24.4279 761.888 25.1447 760.767 25.8657 759.643L24.1826 758.563C23.4601 759.689 22.7418 760.813 22.0278 761.935L23.7155 763.009ZM28.0413 756.27C28.7686 755.147 29.5 754.024 30.2354 752.899L28.5615 751.805C27.8246 752.931 27.0917 754.057 26.3628 755.182L28.0413 756.27ZM32.424 749.567C33.1574 748.456 33.8945 747.344 34.6353 746.232L32.9707 745.123C32.2283 746.238 31.4897 747.352 30.7548 748.466L32.424 749.567ZM36.8686 742.893C37.6123 741.787 38.3596 740.68 39.1102 739.573L37.4549 738.45C36.7027 739.559 35.9539 740.669 35.2086 741.778L36.8686 742.893ZM41.3595 736.27C42.1126 735.169 42.8689 734.069 43.6284 732.969L41.9825 731.833C41.2214 732.935 40.4635 734.038 39.7089 735.141L41.3595 736.27ZM45.9161 729.67C46.6777 728.576 47.4423 727.484 48.2097 726.392L46.5735 725.241C45.8044 726.336 45.0382 727.431 44.275 728.527L45.9161 729.67ZM50.5176 723.123C51.2896 722.034 52.0645 720.946 52.8421 719.86L51.2156 718.696C50.4364 719.785 49.6599 720.875 48.8862 721.966L50.5176 723.123ZM55.1824 716.604C55.9634 715.523 56.7471 714.443 57.5331 713.364L55.9169 712.186C55.1291 713.267 54.3437 714.35 53.561 715.434L55.1824 716.604ZM59.8986 710.134C60.6895 709.058 61.4828 707.985 62.2783 706.914L60.6725 705.721C59.8752 706.795 59.0802 707.871 58.2876 708.948L59.8986 710.134ZM64.673 703.703C65.4746 702.634 66.2784 701.566 67.0843 700.501L65.4894 699.295C64.6817 700.362 63.8761 701.432 63.0726 702.504L64.673 703.703ZM69.5078 697.314C70.3176 696.254 71.1294 695.197 71.943 694.142L70.3595 692.92C69.5439 693.977 68.7303 695.037 67.9186 696.1L69.5078 697.314ZM74.3984 690.975C75.221 689.919 76.0454 688.867 76.8714 687.817L75.2998 686.58C74.4717 687.632 73.6454 688.688 72.8208 689.746L74.3984 690.975ZM79.3541 684.679C80.1833 683.636 81.014 682.597 81.8461 681.562L80.2871 680.309C79.4528 681.347 78.62 682.389 77.7888 683.434L79.3541 684.679ZM84.3704 678.437C85.2146 677.398 86.0602 676.362 86.9069 675.331L85.3613 674.062C84.5122 675.096 83.6644 676.134 82.8179 677.176L84.3704 678.437ZM89.4508 672.25C90.3023 671.224 91.1549 670.203 92.0085 669.187L90.477 667.901C89.6209 668.92 88.766 669.944 87.9121 670.972L89.4508 672.25ZM94.6056 666.112C95.4723 665.093 96.3398 664.078 97.2082 663.068L95.6918 661.764C94.8209 662.777 93.9507 663.795 93.0815 664.817L94.6056 666.112ZM99.8156 660.055C100.695 659.044 101.576 658.039 102.457 657.04L100.957 655.717C100.073 656.72 99.1897 657.728 98.3072 658.741L99.8156 660.055ZM105.126 654.033C106.016 653.037 106.906 652.047 107.797 651.064L106.315 649.721C105.421 650.708 104.527 651.701 103.634 652.701L105.126 654.033ZM110.472 648.131C111.386 647.136 112.3 646.147 113.215 645.166L111.751 643.803C110.834 644.787 109.916 645.779 108.999 646.778L110.472 648.131ZM115.958 642.244C116.872 641.278 117.787 640.319 118.701 639.367L117.259 637.981C116.341 638.937 115.423 639.899 114.505 640.87L115.958 642.244ZM121.49 636.488C122.432 635.524 123.373 634.569 124.314 633.622L122.895 632.212C121.95 633.163 121.005 634.123 120.059 635.091L121.49 636.488ZM127.135 630.808C128.082 629.872 129.028 628.945 129.973 628.028L128.581 626.592C127.631 627.514 126.68 628.445 125.729 629.386L127.135 630.808ZM132.888 625.228C133.858 624.304 134.827 623.392 135.795 622.489L134.432 621.026C133.459 621.933 132.484 622.851 131.509 623.779L132.888 625.228ZM138.696 619.815C139.701 618.899 140.705 617.994 141.706 617.102L140.376 615.608C139.368 616.506 138.359 617.416 137.348 618.337L138.696 619.815ZM144.71 614.459C145.71 613.59 146.707 612.734 147.703 611.892L146.41 610.365C145.408 611.214 144.404 612.075 143.398 612.949L144.71 614.459ZM150.807 609.3C151.846 608.445 152.882 607.605 153.915 606.78L152.668 605.217C151.626 606.048 150.582 606.895 149.536 607.756L150.807 609.3ZM157.008 604.351C158.086 603.517 159.162 602.7 160.233 601.901L159.038 600.298C157.957 601.104 156.872 601.928 155.785 602.768L157.008 604.351ZM163.454 599.545C164.53 598.774 165.602 598.02 166.67 597.286L165.537 595.638C164.458 596.38 163.375 597.141 162.288 597.92L163.454 599.545ZM170.036 595.025C171.153 594.293 172.266 593.582 173.373 592.893L172.317 591.195C171.195 591.892 170.07 592.612 168.94 593.352L170.036 595.025ZM176.777 590.836C177.947 590.15 179.11 589.491 180.266 588.857L179.306 587.103C178.131 587.746 176.951 588.416 175.765 589.111L176.777 590.836ZM183.716 587.037C184.938 586.417 186.153 585.828 187.359 585.271L186.52 583.455C185.291 584.023 184.054 584.623 182.811 585.254L183.716 587.037ZM190.958 583.692C192.208 583.174 193.447 582.693 194.676 582.248L193.995 580.368C192.737 580.823 191.469 581.316 190.193 581.845L190.958 583.692ZM198.42 580.999C199.038 580.811 199.653 580.632 200.265 580.464L199.735 578.536C199.105 578.709 198.472 578.892 197.837 579.086L198.42 580.999ZM200.265 580.464C200.938 580.279 201.604 580.09 202.264 579.895L201.699 577.977C201.05 578.168 200.396 578.354 199.735 578.536L200.265 580.464ZM206.153 578.669C207.457 578.23 208.735 577.772 209.99 577.294L209.277 575.425C208.048 575.893 206.794 576.343 205.515 576.773L206.153 578.669ZM213.768 575.764C215.034 575.22 216.274 574.656 217.487 574.071L216.619 572.269C215.432 572.841 214.219 573.394 212.979 573.926L213.768 575.764ZM221.113 572.223C222.328 571.569 223.515 570.894 224.677 570.198L223.648 568.483C222.514 569.163 221.353 569.823 220.166 570.462L221.113 572.223ZM228.11 568.03C229.258 567.266 230.38 566.481 231.475 565.675L230.289 564.064C229.22 564.852 228.124 565.619 227.002 566.365L228.11 568.03ZM234.699 563.181C235.763 562.317 236.8 561.433 237.811 560.528L236.478 559.037C235.49 559.921 234.477 560.785 233.438 561.629L234.699 563.181ZM240.792 557.735C241.765 556.78 242.713 555.805 243.637 554.811L242.173 553.449C241.269 554.421 240.342 555.374 239.391 556.308L240.792 557.735ZM246.353 551.759C247.235 550.723 248.094 549.669 248.931 548.598L247.356 547.367C246.535 548.416 245.694 549.448 244.83 550.463L246.353 551.759ZM251.378 545.334C252.17 544.232 252.942 543.114 253.694 541.981L252.027 540.875C251.289 541.988 250.532 543.085 249.754 544.166L251.378 545.334ZM255.888 538.542C256.595 537.388 257.285 536.221 257.957 535.041L256.219 534.051C255.557 535.213 254.879 536.362 254.183 537.496L255.888 538.542ZM259.917 531.471C260.55 530.276 261.167 529.069 261.77 527.851L259.977 526.964C259.382 528.167 258.774 529.357 258.15 530.535L259.917 531.471ZM263.523 524.185C264.092 522.958 264.646 521.72 265.189 520.472L263.355 519.675C262.818 520.909 262.27 522.132 261.708 523.345L263.523 524.185ZM266.766 516.738C267.279 515.487 267.78 514.229 268.272 512.962L266.407 512.238C265.92 513.494 265.423 514.741 264.915 515.979L266.766 516.738ZM269.705 509.172C270.172 507.906 270.63 506.634 271.079 505.355L269.193 504.691C268.746 505.961 268.292 507.224 267.829 508.48L269.705 509.172ZM272.399 501.522C272.829 500.245 273.253 498.963 273.67 497.677L271.768 497.059C271.353 498.339 270.932 499.614 270.504 500.883L272.399 501.522ZM274.903 493.814C275.306 492.531 275.705 491.243 276.099 489.951L274.186 489.367C273.793 490.654 273.396 491.937 272.995 493.215L274.903 493.814ZM277.269 486.074C277.654 484.784 278.036 483.492 278.415 482.198L276.496 481.635C276.117 482.926 275.736 484.216 275.352 485.502L277.269 486.074ZM279.547 478.314C279.922 477.021 280.296 475.727 280.669 474.432L278.747 473.878C278.374 475.172 278.001 476.466 277.626 477.757L279.547 478.314ZM281.787 470.548C282.16 469.255 282.533 467.961 282.907 466.668L280.986 466.112C280.611 467.406 280.238 468.701 279.865 469.995L281.787 470.548ZM284.034 462.79C284.412 461.499 284.792 460.209 285.175 458.921L283.258 458.351C282.874 459.642 282.493 460.935 282.115 462.229L284.034 462.79ZM286.336 455.055C286.727 453.767 287.122 452.483 287.521 451.202L285.612 450.607C285.211 451.893 284.814 453.182 284.422 454.473L286.336 455.055ZM288.739 447.357C289.151 446.076 289.568 444.8 289.993 443.528L288.095 442.895C287.669 444.174 287.249 445.457 286.835 446.744L288.739 447.357ZM291.29 439.715C291.732 438.444 292.181 437.179 292.638 435.92L290.758 435.237C290.298 436.505 289.846 437.779 289.401 439.059L291.29 439.715ZM294.041 432.152C294.52 430.894 295.009 429.644 295.508 428.402L293.653 427.656C293.149 428.91 292.655 430.171 292.172 431.439L294.041 432.152ZM297.042 424.692C297.568 423.455 298.105 422.226 298.655 421.006L296.832 420.184C296.276 421.417 295.733 422.659 295.201 423.91L297.042 424.692ZM300.348 417.367C300.929 416.157 301.523 414.958 302.131 413.77L300.351 412.858C299.734 414.062 299.133 415.277 298.545 416.502L300.348 417.367ZM304.01 410.225C304.653 409.051 305.312 407.89 305.988 406.741L304.264 405.727C303.578 406.894 302.909 408.073 302.256 409.263L304.01 410.225ZM308.077 403.318C308.791 402.189 309.523 401.074 310.275 399.973L308.623 398.846C307.858 399.966 307.113 401.101 306.387 402.249L308.077 403.318ZM312.591 396.708C312.987 396.171 313.387 395.638 313.793 395.109L312.207 393.891C311.793 394.431 311.384 394.974 310.981 395.521L312.591 396.708ZM313.793 395.109C314.21 394.565 314.627 394.027 315.044 393.495L313.468 392.263C313.048 392.8 312.627 393.343 312.207 393.891L313.793 395.109ZM317.537 390.37C318.4 389.311 319.261 388.276 320.12 387.264L318.596 385.969C317.728 386.991 316.858 388.037 315.987 389.107L317.537 390.37ZM322.742 384.247C323.645 383.231 324.545 382.242 325.443 381.279L323.98 379.915C323.071 380.89 322.16 381.891 321.247 382.918L322.742 384.247ZM328.225 378.37C329.174 377.403 330.12 376.465 331.063 375.555L329.675 374.116C328.718 375.038 327.759 375.989 326.798 376.969L328.225 378.37ZM333.977 372.826C334.988 371.908 335.994 371.022 336.997 370.168L335.701 368.645C334.681 369.514 333.658 370.414 332.632 371.346L333.977 372.826ZM340.091 367.624C341.154 366.781 342.212 365.974 343.265 365.202L342.082 363.589C341.009 364.377 339.93 365.199 338.848 366.057L340.091 367.624ZM346.525 362.912C347.649 362.157 348.767 361.442 349.878 360.765L348.838 359.057C347.701 359.749 346.558 360.48 345.41 361.251L346.525 362.912ZM353.339 358.772C354.531 358.125 355.715 357.522 356.891 356.963L356.032 355.157C354.824 355.732 353.608 356.35 352.384 357.015L353.339 358.772ZM360.531 355.36C361.784 354.853 363.025 354.395 364.256 353.985L363.624 352.088C362.353 352.511 361.071 352.983 359.78 353.507L360.531 355.36ZM368.056 352.864C369.36 352.529 370.651 352.248 371.927 352.02L371.575 350.051C370.249 350.288 368.91 350.579 367.558 350.927L368.056 352.864ZM375.85 351.479C377.183 351.35 378.499 351.28 379.797 351.265L379.775 349.266C378.419 349.281 377.047 349.354 375.658 349.488L375.85 351.479ZM383.74 351.396C385.064 351.499 386.367 351.662 387.65 351.881L387.987 349.91C386.644 349.68 385.28 349.51 383.895 349.402L383.74 351.396ZM391.501 352.726C392.777 353.068 394.029 353.468 395.258 353.924L395.953 352.048C394.667 351.572 393.355 351.153 392.019 350.794L391.501 352.726ZM398.889 355.461C400.076 356.028 401.238 356.649 402.372 357.319L403.39 355.598C402.206 354.897 400.992 354.25 399.752 353.657L398.889 355.461ZM405.684 359.472C406.754 360.233 407.797 361.041 408.812 361.893L410.098 360.361C409.043 359.475 407.958 358.635 406.843 357.842L405.684 359.472ZM411.745 364.555C412.684 365.474 413.594 366.432 414.476 367.429L415.974 366.103C415.061 365.072 414.118 364.079 413.144 363.126L411.745 364.555ZM417 370.488C417.403 371.011 417.8 371.544 418.188 372.084L419.812 370.916C419.411 370.358 419.001 369.809 418.585 369.267L417 370.488ZM418.188 372.084C418.573 372.619 418.942 373.161 419.296 373.709L420.977 372.625C420.605 372.049 420.217 371.479 419.812 370.916L418.188 372.084ZM421.247 377.103C421.842 378.274 422.372 379.468 422.837 380.681L424.705 379.965C424.214 378.687 423.656 377.43 423.03 376.197L421.247 377.103ZM424.05 384.406C424.39 385.668 424.664 386.946 424.874 388.237L426.848 387.915C426.627 386.559 426.339 385.214 425.981 383.886L424.05 384.406ZM425.311 392.134C425.392 393.434 425.41 394.743 425.366 396.057L427.365 396.125C427.411 394.747 427.392 393.375 427.307 392.01L425.311 392.134ZM425.052 399.972C424.889 401.264 424.667 402.557 424.387 403.848L426.341 404.273C426.634 402.925 426.866 401.573 427.037 400.223L425.052 399.972ZM423.387 407.659C423.004 408.902 422.566 410.142 422.075 411.373L423.933 412.114C424.444 410.833 424.899 409.543 425.298 408.247L423.387 407.659ZM420.473 414.973C419.898 416.142 419.273 417.3 418.6 418.445L420.323 419.46C421.022 418.272 421.67 417.07 422.267 415.856L420.473 414.973ZM416.476 421.775C415.736 422.849 414.951 423.908 414.121 424.951L415.686 426.196C416.544 425.118 417.357 424.022 418.123 422.91L416.476 421.775ZM411.556 427.962C410.677 428.927 409.758 429.875 408.798 430.802L410.187 432.24C411.178 431.284 412.127 430.306 413.035 429.309L411.556 427.962ZM405.865 433.464C404.872 434.312 403.841 435.139 402.775 435.944L403.98 437.54C405.078 436.711 406.139 435.859 407.163 434.985L405.865 433.464ZM399.544 438.24C398.458 438.966 397.339 439.67 396.187 440.35L397.205 442.072C398.388 441.373 399.538 440.649 400.655 439.903L399.544 438.24ZM392.72 442.274C391.56 442.878 390.372 443.458 389.154 444.015L389.985 445.834C391.234 445.264 392.453 444.668 393.643 444.048L392.72 442.274ZM385.503 445.572C384.288 446.056 383.046 446.516 381.778 446.951L382.427 448.842C383.725 448.397 384.997 447.926 386.242 447.431L385.503 445.572ZM377.989 448.154C376.731 448.521 375.449 448.866 374.143 449.185L374.619 451.128C375.953 450.801 377.263 450.449 378.55 450.073L377.989 448.154ZM370.25 450.05C368.967 450.306 367.663 450.539 366.339 450.748L366.65 452.723C368.002 452.51 369.332 452.273 370.642 452.011L370.25 450.05ZM362.402 451.289C361.74 451.367 361.074 451.439 360.402 451.505L360.598 453.495C361.282 453.428 361.961 453.355 362.636 453.275L362.402 451.289ZM360.402 451.505C359.749 451.569 359.098 451.619 358.45 451.655L358.561 453.652C359.237 453.614 359.916 453.562 360.598 453.495L360.402 451.505ZM354.58 451.702C353.28 451.661 351.991 451.562 350.716 451.406L350.474 453.392C351.809 453.554 353.157 453.658 354.517 453.701L354.58 451.702ZM346.892 450.763C345.63 450.491 344.382 450.162 343.148 449.777L342.552 451.686C343.843 452.089 345.15 452.433 346.471 452.718L346.892 450.763ZM339.503 448.46C338.312 447.969 337.136 447.424 335.975 446.826L335.059 448.604C336.269 449.228 337.497 449.796 338.741 450.309L339.503 448.46ZM332.6 444.909C331.513 444.233 330.441 443.507 329.385 442.734L328.203 444.347C329.299 445.15 330.413 445.904 331.544 446.607L332.6 444.909ZM326.327 440.32C325.344 439.486 324.376 438.608 323.425 437.687L322.033 439.123C323.015 440.074 324.016 440.982 325.034 441.845L326.327 440.32ZM320.716 434.897C319.85 433.949 319 432.964 318.165 431.941L316.615 433.206C317.473 434.257 318.348 435.271 319.24 436.246L320.716 434.897ZM315.759 428.827C315.001 427.792 314.259 426.724 313.532 425.623L311.863 426.726C312.607 427.852 313.368 428.946 314.145 430.008L315.759 428.827ZM311.447 422.305C310.78 421.19 310.128 420.046 309.491 418.873L307.733 419.826C308.383 421.024 309.049 422.192 309.73 423.332L311.447 422.305ZM307.699 415.41C307.124 414.244 306.563 413.052 306.017 411.836L304.192 412.655C304.748 413.893 305.319 415.107 305.906 416.295L307.699 415.41ZM304.474 408.234C303.983 407.033 303.506 405.809 303.043 404.564L301.168 405.261C301.638 406.526 302.123 407.769 302.622 408.99L304.474 408.234ZM301.726 400.85C301.312 399.622 300.91 398.375 300.522 397.108L298.61 397.694C299.003 398.979 299.411 400.244 299.831 401.49L301.726 400.85ZM299.417 393.313C299.071 392.064 298.738 390.798 298.418 389.515L296.478 389.999C296.802 391.299 297.139 392.581 297.489 393.846L299.417 393.313ZM297.508 385.663C297.226 384.397 296.955 383.116 296.697 381.818L294.735 382.209C294.996 383.521 295.27 384.818 295.557 386.099L297.508 385.663ZM295.968 377.93C295.743 376.649 295.53 375.354 295.328 374.044L293.351 374.349C293.555 375.672 293.771 376.981 293.999 378.277L295.968 377.93ZM294.768 370.136C294.596 368.841 294.436 367.533 294.287 366.212L292.299 366.436C292.45 367.77 292.612 369.091 292.786 370.399L294.768 370.136ZM293.883 362.297C293.761 360.988 293.65 359.668 293.55 358.336L291.556 358.486C291.656 359.83 291.768 361.162 291.892 362.483L293.883 362.297ZM293.292 354.424C293.217 353.109 293.153 351.783 293.099 350.447L291.101 350.526C291.155 351.874 291.219 353.212 291.295 354.538L293.292 354.424ZM292.976 346.527C292.946 345.217 292.926 343.897 292.917 342.567L290.917 342.581C290.926 343.921 290.946 345.252 290.977 346.573L292.976 346.527ZM292.92 338.61C292.932 337.308 292.953 335.996 292.985 334.675L290.985 334.627C290.954 335.958 290.932 337.28 290.92 338.593L292.92 338.61ZM293.11 330.688C293.161 329.391 293.221 328.087 293.291 326.774L291.294 326.668C291.224 327.99 291.163 329.304 291.112 330.61L293.11 330.688ZM293.53 322.821C293.619 321.51 293.717 320.192 293.825 318.866L291.832 318.704C291.723 320.039 291.624 321.366 291.535 322.686L293.53 322.821ZM294.17 314.95C294.295 313.638 294.429 312.318 294.573 310.992L292.584 310.776C292.44 312.112 292.305 313.44 292.179 314.761L294.17 314.95ZM295.022 307.077C295.18 305.779 295.346 304.474 295.522 303.163L293.54 302.897C293.363 304.217 293.195 305.53 293.037 306.836L295.022 307.077ZM296.077 299.21C296.265 297.924 296.463 296.632 296.669 295.334L294.694 295.02C294.487 296.326 294.288 297.626 294.098 298.92L296.077 299.21ZM297.314 291.431C297.537 290.127 297.769 288.818 298.01 287.503L296.042 287.142C295.8 288.465 295.567 289.782 295.342 291.093L297.314 291.431ZM298.738 283.651C298.989 282.362 299.249 281.068 299.517 279.768L297.559 279.364C297.289 280.67 297.028 281.972 296.775 283.269L298.738 283.651ZM300.345 275.87C300.623 274.599 300.908 273.323 301.202 272.042L299.253 271.595C298.957 272.883 298.67 274.166 298.391 275.444L300.345 275.87ZM302.108 268.186C302.418 266.9 302.736 265.609 303.062 264.314L301.122 263.826C300.795 265.128 300.475 266.425 300.164 267.718L302.108 268.186ZM304.039 260.516C304.373 259.245 304.715 257.97 305.065 256.691L303.135 256.164C302.784 257.449 302.44 258.73 302.105 260.007L304.039 260.516ZM306.138 252.842C306.494 251.591 306.858 250.337 307.229 249.078L305.311 248.512C304.938 249.777 304.572 251.038 304.215 252.295L306.138 252.842ZM308.366 245.291C308.753 244.025 309.147 242.755 309.55 241.481L307.643 240.878C307.239 242.158 306.842 243.434 306.453 244.707L308.366 245.291ZM310.753 237.735C311.16 236.49 311.574 235.241 311.995 233.989L310.1 233.351C309.676 234.609 309.26 235.863 308.852 237.114L310.753 237.735ZM313.282 230.223C313.501 229.593 313.721 228.963 313.943 228.332L312.057 227.668C311.834 228.302 311.612 228.935 311.393 229.567L313.282 230.223ZM313.943 228.332C314.166 227.7 314.39 227.068 314.614 226.437L312.73 225.766C312.505 226.399 312.28 227.033 312.057 227.668L313.943 228.332ZM315.975 222.658C316.433 221.401 316.894 220.147 317.36 218.895L315.486 218.197C315.018 219.454 314.555 220.712 314.096 221.974L315.975 222.658ZM318.775 215.133C319.25 213.881 319.73 212.632 320.213 211.385L318.348 210.662C317.863 211.913 317.382 213.166 316.905 214.423L318.775 215.133ZM321.676 207.649C322.169 206.402 322.666 205.158 323.166 203.916L321.312 203.169C320.809 204.414 320.311 205.663 319.816 206.914L321.676 207.649ZM324.678 200.201C325.188 198.961 325.701 197.724 326.217 196.49L324.372 195.718C323.854 196.956 323.34 198.197 322.829 199.441L324.678 200.201ZM327.779 192.79C328.304 191.559 328.831 190.331 329.361 189.107L327.526 188.312C326.994 189.54 326.465 190.771 325.939 192.006L327.779 192.79ZM330.973 185.42C331.513 184.195 332.057 182.973 332.603 181.754L330.778 180.936C330.23 182.158 329.685 183.384 329.143 184.614L330.973 185.42ZM334.257 178.095C334.813 176.874 335.372 175.656 335.934 174.442L334.119 173.602C333.556 174.82 332.995 176.041 332.437 177.266L334.257 178.095ZM337.628 170.812C338.2 169.595 338.775 168.383 339.352 167.174L337.547 166.313C336.968 167.525 336.392 168.741 335.818 169.961L337.628 170.812ZM341.092 163.558C341.676 162.351 342.263 161.149 342.852 159.951L341.058 159.068C340.467 160.27 339.878 161.476 339.292 162.685L341.092 163.558ZM344.638 156.347C345.235 155.15 345.835 153.957 346.436 152.768L344.652 151.865C344.049 153.057 343.447 154.254 342.848 155.454L344.638 156.347ZM348.265 149.181C348.877 147.988 349.491 146.8 350.107 145.616L348.333 144.692C347.715 145.88 347.099 147.072 346.485 148.268L348.265 149.181ZM351.969 142.06C352.596 140.871 353.225 139.687 353.856 138.507L352.092 137.564C351.46 138.747 350.829 139.935 350.2 141.127L351.969 142.06ZM355.751 134.983C356.393 133.798 357.036 132.618 357.68 131.443L355.926 130.481C355.28 131.659 354.636 132.842 353.992 134.03L355.751 134.983ZM359.618 127.932C360.27 126.757 360.924 125.588 361.578 124.425L359.835 123.444C359.179 124.611 358.523 125.783 357.869 126.961L359.618 127.932ZM363.558 120.925C364.221 119.762 364.884 118.604 365.548 117.452L363.816 116.453C363.15 117.608 362.485 118.769 361.82 119.936L363.558 120.925ZM367.571 113.964C368.246 112.808 368.921 111.657 369.597 110.512L367.875 109.495C367.197 110.643 366.52 111.797 365.843 112.956L367.571 113.964ZM371.654 107.048C372.343 105.895 373.032 104.749 373.721 103.61L372.009 102.575C371.319 103.718 370.628 104.867 369.938 106.022L371.654 107.048ZM375.808 100.177C376.51 99.0287 377.213 97.887 377.915 96.7522L376.214 95.7C375.51 96.8376 374.806 97.9822 374.102 99.1337L375.808 100.177ZM380.031 93.3516C380.747 92.2071 381.463 91.0699 382.178 89.9402L380.488 88.8705C379.771 90.0031 379.053 91.1432 378.335 92.2906L380.031 93.3516ZM384.322 86.5711C385.052 85.4307 385.781 84.2982 386.509 83.1737L384.831 82.0868C384.101 83.2141 383.37 84.3495 382.638 85.4928L384.322 86.5711ZM388.69 79.8245C389.431 78.6922 390.171 77.5683 390.91 76.4531L389.242 75.3489C388.502 76.467 387.76 77.5938 387.017 78.729L388.69 79.8245ZM393.127 73.1228C393.88 71.9988 394.631 70.884 395.379 69.7784L393.723 68.6571C392.973 69.7654 392.22 70.8832 391.465 72.0101L393.127 73.1228ZM397.633 66.4692C398.397 65.3529 399.159 64.2466 399.918 63.1504L398.274 62.0117C397.513 63.1108 396.749 64.22 395.982 65.3393L397.633 66.4692ZM402.206 59.8652C402.983 58.7558 403.757 57.6573 404.527 56.57L402.895 55.4139C402.123 56.5041 401.347 57.6055 400.568 58.7178L402.206 59.8652ZM406.848 53.3129C407.638 52.2095 408.425 51.1181 409.207 50.0391L407.588 48.8652C406.804 49.9472 406.015 51.0415 405.222 52.1479L406.848 53.3129ZM411.558 46.8158C412.363 45.7173 413.164 44.6324 413.959 43.5612L412.353 42.3691C411.556 43.4434 410.753 44.5313 409.945 45.6329L411.558 46.8158ZM416.346 40.3647C417.165 39.2752 417.977 38.2009 418.783 37.1421L417.191 35.9311C416.383 36.9931 415.568 38.0706 414.747 39.1634L416.346 40.3647ZM421.22 33.9591C422.047 32.886 422.866 31.83 423.677 30.7915L422.1 29.5607C421.287 30.6026 420.465 31.6619 419.636 32.7384L421.22 33.9591ZM426.169 27.6206C427.008 26.5605 427.838 25.5203 428.656 24.5003L427.097 23.2483C426.275 24.2719 425.443 25.3157 424.601 26.3793L426.169 27.6206ZM431.189 21.3683C432.055 20.3067 432.907 19.2693 433.745 18.2564L432.205 16.9809C431.363 17.9978 430.507 19.0393 429.639 20.1049L431.189 21.3683ZM436.307 15.1882C437.187 14.1436 438.05 13.1285 438.895 12.1436L437.377 10.8414C436.528 11.8311 435.661 12.8507 434.777 13.8999L436.307 15.1882ZM441.538 9.09332C442.451 8.05044 443.34 7.04699 444.204 6.08373L442.715 4.7487C441.846 5.71795 440.951 6.7272 440.033 7.77568L441.538 9.09332ZM446.901 3.11484C447.353 2.62475 447.796 2.14752 448.23 1.68329L446.77 0.316709C446.332 0.784817 445.885 1.26582 445.43 1.75958L446.901 3.11484Z" fill="#F5E2E9"/>
</svg>
