<svg width="23" height="23" viewBox="0 0 23 23" fill="none" xmlns="http://www.w3.org/2000/svg">
<path d="M21.2973 0.00235495C21.0132 0.0253618 20.7344 0.0995494 20.4717 0.222024H20.4682C20.216 0.333336 19.0171 0.894821 17.1944 1.74591L10.6626 4.80847C5.97574 7.00516 1.36849 9.16836 1.36849 9.16836L1.42335 9.14472C1.42335 9.14472 1.1057 9.26095 0.773889 9.51412C0.568902 9.65933 0.392509 9.84934 0.255386 10.0726C0.0925789 10.3386 -0.0383742 10.7454 0.0102908 11.1661C0.0899245 11.8773 0.504019 12.3038 0.801319 12.5392C1.10216 12.7776 1.38884 12.8889 1.38884 12.8889H1.39592L5.71649 14.5094C5.91026 15.2019 7.0331 19.3115 7.30297 20.2582C7.46223 20.8236 7.61708 21.1773 7.81085 21.4472C7.90464 21.5851 8.01436 21.7003 8.1462 21.7929C8.21474 21.8373 8.28782 21.8724 8.36386 21.8973L8.31962 21.8855C8.33289 21.8895 8.34351 21.9013 8.35325 21.9052C8.38864 21.9161 8.41253 21.92 8.45765 21.9279C9.14162 22.1584 9.69109 21.6855 9.69109 21.6855L9.72206 21.658L12.273 19.0722L16.5484 22.7238L16.6458 22.7701C17.5368 23.2055 18.4393 22.9632 18.9162 22.5357C19.3967 22.1052 19.5834 21.5545 19.5834 21.5545L19.6143 21.4659L22.9182 2.62262C23.012 2.15767 23.0359 1.72227 22.9324 1.29968C22.8256 0.871993 22.5792 0.504153 22.2414 0.268321C21.9577 0.0763477 21.6288 -0.0163134 21.2973 0.00235495ZM21.2079 2.02173C21.2044 2.08379 21.215 2.0769 21.1902 2.19609V2.20692L17.9173 20.8542C17.9031 20.8807 17.8792 20.9389 17.8137 20.997C17.7447 21.0581 17.6899 21.0965 17.4023 20.9694L12.173 16.5061L9.0142 19.7115L9.67782 14.993L18.2216 6.12747C18.5738 5.763 18.4561 5.68616 18.4561 5.68616C18.4809 5.23895 17.9243 5.55515 17.9243 5.55515L7.15078 12.9855L7.14724 12.9658L1.98344 11.0301V11.0262L1.97016 11.0232C1.97922 11.0199 1.98808 11.0159 1.99671 11.0114L2.02502 10.9956L2.05245 10.9848C2.05245 10.9848 6.66324 8.82162 11.3501 6.62493C13.6967 5.52461 16.0609 4.41642 17.8792 3.56138C19.6975 2.71128 21.0415 2.08773 21.1176 2.05424C21.1902 2.02272 21.1557 2.02272 21.2079 2.02272V2.02173Z" fill="black"/>
</svg>
